<svg xmlns:dc="http://purl.org/dc/elements/1.1/" xmlns:cc="http://creativecommons.org/ns#" xmlns:rdf="http://www.w3.org/1999/02/22-rdf-syntax-ns#" xmlns:svg="http://www.w3.org/2000/svg" xmlns="http://www.w3.org/2000/svg" xmlns:xlink="http://www.w3.org/1999/xlink" id="svg409641" version="1.1" viewBox="158.35 232.7 707.32 302.52">
  <metadata id="metadata409647">
    <rdf:rdf>
      <cc:work rdf:about="">
        <dc:format>image/svg+xml</dc:format>
        <dc:type rdf:resource="http://purl.org/dc/dcmitype/StillImage"/>
      </cc:work>
    </rdf:rdf>
  </metadata>
  <defs id="defs409645"/>
  <linearGradient spreadMethod="pad" y2="30%" x2="-10%" y1="120%" x1="30%" id="3d_gradient2-logo-dac657ad-326c-45f0-8eed-59a929d5fe80">
    <stop id="stop409622" stop-opacity="1" stop-color="#ffffff" offset="0%"/>
    <stop id="stop409624" stop-opacity="1" stop-color="#000000" offset="100%"/>
  </linearGradient>
  <linearGradient gradientTransform="rotate(-30)" spreadMethod="pad" y2="30%" x2="-10%" y1="120%" x1="30%" id="3d_gradient3-logo-dac657ad-326c-45f0-8eed-59a929d5fe80">
    <stop id="stop409627" stop-opacity="1" stop-color="#ffffff" offset="0%"/>
    <stop id="stop409629" stop-opacity="1" stop-color="#cccccc" offset="50%"/>
    <stop id="stop409631" stop-opacity="1" stop-color="#000000" offset="100%"/>
  </linearGradient>
  <g id="logo-group">
    <image xlink:href="" id="container" style="display: none;" x="272" y="144" width="480" height="480" transform="translate(0 0)"/>
    <g id="logo-center" transform="translate(0 0)">
      <image xlink:href="" id="icon_container" style="display: none;" x="0" y="0"/>
      <g id="slogan" style="font-style:normal;font-weight:400;font-size:32px;line-height:1;font-family:'Roboto Condensed';font-variant-ligatures:none;text-align:center;text-anchor:middle" transform="translate(0 0)"/>
      <g id="title" style="font-style:normal;font-weight:normal;font-size:72px;line-height:1;font-family:'Brandmark Sans 38';font-variant-ligatures:normal;text-align:center;text-anchor:middle" transform="translate(0 0)">
        <path id="path409650" style="font-style:normal;font-weight:normal;font-size:72px;line-height:1;font-family:'Brandmark Sans 38';font-variant-ligatures:normal;text-align:center;text-anchor:middle" d="m 484.44706,-26.064 h -15.48 v 2.232 h 1.584 c 19.368,0 31.824,15.048 34.344,23.832 h 7.2 c -3.096,-11.664 -16.992,-21.744 -30.6,-23.832 h 4.608 c 17.064,0 22.824,-5.04 22.824,-13.32 0,-8.28 -5.76,-13.248 -22.824,-13.248 h -30.816 V 0 h 7.2 v -48.24 h 21.96 c 12.744,0 16.56,4.104 16.56,11.016 0,6.984 -3.816,11.16 -16.56,11.16 z" stroke-width="0" stroke-linejoin="miter" stroke-miterlimit="2" fill="#000000" stroke="#000000" transform="translate(0 434.79999999999995) translate(158.38099999999997 -201.99999999999997) scale(6) translate(-455.28706 50.4)"/>
        <path id="path409652" style="font-style:normal;font-weight:normal;font-size:72px;line-height:1;font-family:'Brandmark Sans 38';font-variant-ligatures:normal;text-align:center;text-anchor:middle" d="m 510.37606,-50.4 31.68,50.4 3.96,-6.336 -27.72,-44.064 z m 37.944,35.64 1.44,2.304 23.4,-37.944 h -2.88 z" stroke-width="0" stroke-linejoin="miter" stroke-miterlimit="2" fill="#000000" stroke="#000000" transform="translate(0 434.79999999999995) translate(488.915 -201.99999999999997) scale(6) translate(-510.37606 50.4)"/>
      </g>
      <image xlink:href="" id="icon" style="display: none;" x="0" y="0"/>
    </g>
  </g>
</svg>