<svg width="512" height="193" viewBox="0 0 512 193" fill="none" xmlns="http://www.w3.org/2000/svg">
<path d="M124.841 93.1677H58.5673V101.713H65.3487C148.267 101.713 201.594 159.322 212.383 192.951H243.208C229.953 148.296 170.461 109.706 112.202 101.713H131.93C204.985 101.713 229.645 82.4176 229.645 50.7185C229.645 19.0194 204.985 0 131.93 0H0V192.951H30.8249V8.26932H124.841C179.4 8.26932 195.738 23.981 195.738 50.4429C195.738 77.1803 179.4 93.1677 124.841 93.1677Z" fill="white"/>
<path d="M243.208 -2.11153e-06L378.837 192.951L395.791 168.694L277.115 -2.11153e-06H243.208ZM405.655 136.444L411.82 145.264L512 -2.11153e-06H499.67L405.655 136.444Z" fill="white"/>
</svg>
