<svg width="80" height="80" viewBox="0 0 80 80" fill="none" xmlns="http://www.w3.org/2000/svg">
<path d="M5.792 20.0387L39.5 0.57735L73.208 20.0387V58.9613L39.5 78.4226L5.792 58.9613V20.0387Z" stroke="#0E0E0E"/>
<path d="M20.0387 73.208L0.57735 39.5L20.0387 5.792H58.9613L78.4226 39.5L58.9613 73.208H20.0387Z" stroke="#0E0E0E"/>
<path d="M21.0568 33.8125H26.4943V49H29.1193V33.8125H34.5653V31.5455H21.0568V33.8125ZM37.5504 49H44.2408C48.2976 49 50.13 46.9801 50.13 44.304C50.13 41.6023 48.2379 40.0767 46.5078 39.983V39.8125C48.1101 39.4034 49.4482 38.3125 49.4482 36.1307C49.4482 33.5483 47.6584 31.5455 43.9425 31.5455H37.5504V49ZM40.1839 46.7415V41.1506H44.0788C46.1925 41.1506 47.5135 42.5142 47.5135 44.1761C47.5135 45.642 46.5163 46.7415 43.9851 46.7415H40.1839ZM40.1839 39.0966V33.7869H43.7805C45.8686 33.7869 46.8658 34.8864 46.8658 36.3352C46.8658 38.0227 45.4851 39.0966 43.7124 39.0966H40.1839ZM54.728 49.1619C55.657 49.1619 56.4325 48.4034 56.4325 47.4574C56.4325 46.5284 55.657 45.7614 54.728 45.7614C53.7905 45.7614 53.0234 46.5284 53.0234 47.4574C53.0234 48.4034 53.7905 49.1619 54.728 49.1619Z" fill="#0E0E0E"/>
</svg>
