<svg width="512" height="512" viewBox="0 0 512 512" fill="none" xmlns="http://www.w3.org/2000/svg">
<rect width="512" height="512" rx="128" fill="white"/>
<path d="M162.974 253.813H115.969V259.874H120.779C179.59 259.874 217.412 300.734 225.064 324.586H246.927C237.526 292.914 195.331 265.544 154.01 259.874H168.002C219.817 259.874 237.307 246.189 237.307 223.706C237.307 201.223 219.817 187.733 168.002 187.733H74.4296V324.586H96.2925V193.598H162.974C201.671 193.598 213.258 204.742 213.258 223.51C213.258 242.474 201.671 253.813 162.974 253.813Z" fill="black"/>
<path d="M246.927 187.733L343.123 324.586L355.148 307.381L270.976 187.733H246.927ZM362.144 284.507L366.516 290.763L437.57 187.733H428.825L362.144 284.507Z" fill="black"/>
</svg>
